<?xml version="1.0" standalone="no"?>
<!DOCTYPE svg PUBLIC "-//W3C//DTD SVG 20010904//EN"
 "http://www.w3.org/TR/2001/REC-SVG-20010904/DTD/svg10.dtd">
<svg version="1.0" xmlns="http://www.w3.org/2000/svg"
 width="700.000000pt" height="700.000000pt" viewBox="0 0 700.000000 700.000000"
 preserveAspectRatio="xMidYMid meet">
<metadata>
Created by potrace 1.11, written by Peter Selinger 2001-2013
</metadata>
<g transform="translate(0.000000,700.000000) scale(0.100000,-0.100000)"
fill="#000000" stroke="none">
<path d="M6885 5940 c-63 -100 -197 -260 -236 -281 -12 -6 -8 10 16 59 36 73
52 122 39 121 -5 0 -36 -37 -69 -82 -49 -67 -211 -224 -221 -215 -1 2 3 39 8
83 11 81 4 165 -12 149 -5 -5 -16 -37 -24 -70 -9 -34 -22 -76 -30 -94 l-13
-33 -7 49 c-12 88 -27 154 -35 154 -4 0 -13 -42 -19 -93 -6 -51 -21 -119 -32
-151 -11 -33 -20 -70 -20 -82 0 -27 10 -23 -245 -78 -305 -66 -769 -187 -1085
-282 -304 -93 -849 -282 -873 -304 -19 -17 254 -161 448 -237 553 -217 1171
-219 1600 -6 172 86 345 234 439 376 89 136 149 316 162 487 l7 90 -36 0 -37
0 63 63 c79 78 169 213 213 319 40 94 40 123 -1 58z m-241 -522 c-64 -179
-162 -339 -278 -454 -170 -171 -405 -286 -686 -339 -47 -9 -94 -18 -106 -20
-20 -4 -21 -2 -16 99 5 110 -15 257 -47 352 l-17 52 150 42 c197 56 717 227
876 289 69 27 131 49 137 50 9 1 4 -23 -13 -71z m-1348 -491 c2 -106 14 -194
45 -327 4 -13 -18 -15 -156 -13 -318 5 -695 69 -1118 190 -22 7 1 13 110 31
281 47 780 155 1018 221 108 30 100 38 101 -102z"/>
<path d="M80 5642 c0 -5 11 -36 24 -70 71 -179 217 -367 333 -425 l48 -25 13
-88 c16 -118 45 -211 97 -316 166 -331 493 -539 941 -598 139 -19 461 -8 599
19 363 72 685 208 980 413 48 34 71 55 63 59 -48 27 -577 166 -903 238 -345
76 -915 177 -1201 212 l-101 13 -11 68 c-7 38 -12 100 -12 138 0 39 -4 70 -9
70 -11 0 -51 -96 -51 -123 0 -15 -3 -18 -11 -10 -16 16 -39 119 -39 175 0 113
-38 34 -49 -102 l-6 -75 -26 45 c-15 25 -37 75 -50 113 -13 37 -27 67 -31 67
-14 0 -7 -134 11 -202 9 -38 16 -68 14 -68 -25 0 -214 190 -251 252 -9 15 -20
28 -25 28 -14 0 1 -48 38 -122 18 -38 30 -68 25 -68 -17 0 -182 185 -232 260
-29 44 -56 80 -60 80 -9 0 14 -66 51 -143 l29 -62 -39 45 c-22 25 -65 82 -95
128 -54 79 -64 91 -64 74z m590 -581 c156 -46 511 -135 720 -181 80 -17 153
-34 162 -36 15 -4 15 -9 3 -43 -26 -76 -38 -188 -33 -335 3 -99 1 -146 -6
-146 -6 0 -53 9 -103 19 -419 87 -687 291 -864 657 -27 56 -49 105 -49 109 0
3 8 4 18 1 9 -3 78 -23 152 -45z m1320 -301 c371 -66 765 -121 1018 -141 84
-7 147 -16 140 -20 -7 -4 -101 -37 -208 -73 -397 -133 -699 -197 -1019 -215
-75 -4 -137 -7 -139 -6 -1 1 3 26 10 56 16 67 16 350 1 401 -11 36 -10 38 10
33 12 -3 96 -18 187 -35z"/>
<path d="M5046 4283 c-14 -48 -166 -604 -166 -609 0 -3 -13 4 -29 16 -202 143
-1389 173 -2236 55 -114 -16 -205 -32 -240 -42 -11 -3 25 36 80 87 126 116
447 442 441 447 -2 2 -91 -54 -197 -125 -519 -344 -869 -572 -919 -597 -80
-40 -195 -130 -233 -183 -59 -83 -72 -126 -72 -237 0 -95 2 -104 37 -177 66
-138 146 -236 301 -364 315 -264 754 -461 1207 -544 148 -27 411 -37 546 -21
194 24 399 90 536 173 266 160 541 486 732 866 87 174 137 407 190 892 35 320
42 428 22 363z m-633 -697 c141 -16 252 -36 299 -55 70 -27 38 -202 -81 -446
-169 -346 -448 -658 -700 -784 -392 -196 -988 -144 -1557 134 -425 209 -734
517 -700 699 10 53 61 113 138 163 231 149 682 250 1333 298 254 19 1078 13
1268 -9z"/>
<path d="M2755 3432 c-205 -95 -237 -589 -50 -761 111 -103 240 -37 307 158
20 57 23 85 23 211 -1 134 -3 150 -28 214 -61 155 -157 222 -252 178z"/>
<path d="M3754 3431 c-51 -31 -77 -106 -82 -237 -3 -91 0 -125 18 -190 48
-176 142 -257 224 -193 130 102 101 490 -45 613 -36 31 -72 33 -115 7z"/>
<path d="M4930 1989 c-607 -27 -1201 -242 -1606 -582 -106 -89 -286 -288 -272
-302 2 -2 51 26 108 62 436 276 1049 477 1670 548 136 15 520 38 527 31 2 -2
22 -41 44 -87 22 -46 60 -111 84 -145 52 -73 185 -200 244 -232 l42 -24 -8 89
c-9 96 -8 275 2 339 l6 40 97 -13 c133 -18 287 -49 411 -84 58 -15 107 -27
109 -25 10 10 -157 115 -273 171 -340 165 -721 234 -1185 214z"/>
</g>
</svg>
