<svg id="Layer_1" data-name="Layer 1" xmlns="http://www.w3.org/2000/svg" viewBox="0 0 50.37 50.37">
	<defs>
		<style>.cls-1{
				fill:#848484;
			}
			.cls-2{
				fill:none;
				stroke:#414141;
				stroke-miterlimit:10;
				stroke-width:2px;
			}</style>
	</defs>
	<title>share-outline</title>
	<path class="cls-1"
		  d="M18.2,16.21c0-.13.09-.26.11-.4a5.67,5.67,0,0,1,3-4.3c1.44-.75,3.83.15,4.78,1.7a7.41,7.41,0,0,1,1.08,4.86.57.57,0,0,0,.18.44c1.6,1.06,3.2,2.11,4.82,3.15,1,.66,2.06,1.3,3.09,1.95.5.32,1,.63,1.5,1l2.35,1.58a9,9,0,0,1,.68-.69,6.18,6.18,0,0,1,1.46-1.05c2.06-.71,3.51,0,4.71,1.69a7,7,0,0,1-.92,8.84C43.82,36,41.1,36,40.2,34.94c-.33-.39-.71-.71-1.07-1.07-.15.09-.32.15-.46.25-1.34.89-2.67,1.81-4,2.69s-2.93,1.86-4.39,2.79l-1.65,1c-.46.3-1.11.49-1.34.93s0,1.15-.05,1.74c-.14,2.14-.91,4-2.68,5-2.09,1.14-4.25.3-5.39-1.83a19.16,19.16,0,0,1-.95-2.67V42a6.45,6.45,0,0,1,2.66-4.48,3.91,3.91,0,0,1,3.7,0c.66.58,1.3,1.19,2,1.85.94-.63,2-1.35,3.05-2,1.27-.84,2.55-1.66,3.83-2.48,1.5-1,3-1.88,4.49-2.85a.81.81,0,0,0,.27-.56c0-1,0-2,0-2.95a.53.53,0,0,0-.18-.42q-2.22-1.5-4.46-3c-1-.66-2.07-1.29-3.09-1.95-.53-.34-1-.72-1.55-1.06-.83-.53-1.67-1-2.43-1.52a10,10,0,0,1-1.72,1.72,3.9,3.9,0,0,1-5.68-1.75A16.29,16.29,0,0,1,18.2,18Z" transform="translate(-4.81 -4.81)"/>
	<path class="cls-2" d="M1,25.19a24.19,24.19 0 1,0 48.38,0a24.19,24.19 0 1,0 -48.38,0"/>
</svg>